{
    "accessors": {
        "accessor_220": {
            "bufferView": "bufferView_253",
            "byteOffset": 0,
            "byteStride": 0,
            "componentType": 5123,
            "count": 12,
            "type": "SCALAR"
        },
        "accessor_223": {
            "bufferView": "bufferView_253",
            "byteOffset": 24,
            "byteStride": 0,
            "componentType": 5123,
            "count": 72,
            "type": "SCALAR"
        },
        "accessor_226": {
            "bufferView": "bufferView_253",
            "byteOffset": 168,
            "byteStride": 0,
            "componentType": 5123,
            "count": 1668,
            "type": "SCALAR"
        },
        "accessor_229": {
            "bufferView": "bufferView_253",
            "byteOffset": 3504,
            "byteStride": 0,
            "componentType": 5123,
            "count": 6138,
            "type": "SCALAR"
        },
        "accessor_232": {
            "bufferView": "bufferView_253",
            "byteOffset": 15780,
            "byteStride": 0,
            "componentType": 5123,
            "count": 36,
            "type": "SCALAR"
        },
        "accessor_235": {
            "bufferView": "bufferView_253",
            "byteOffset": 15852,
            "byteStride": 0,
            "componentType": 5123,
            "count": 1206,
            "type": "SCALAR"
        },
        "accessor_238": {
            "bufferView": "bufferView_253",
            "byteOffset": 18264,
            "byteStride": 0,
            "componentType": 5123,
            "count": 12,
            "type": "SCALAR"
        },
        "accessor_241": {
            "bufferView": "bufferView_253",
            "byteOffset": 18288,
            "byteStride": 0,
            "componentType": 5123,
            "count": 1368,
            "type": "SCALAR"
        },
        "accessor_243": {
            "bufferView": "bufferView_254",
            "byteOffset": 0,
            "byteStride": 12,
            "componentType": 5126,
            "count": 7086,
            "max": [
                47.3333,
                44,
                10
            ],
            "min": [
                -46.6667,
                -46,
                -0.1
            ],
            "type": "VEC3"
        },
        "accessor_245": {
            "bufferView": "bufferView_254",
            "byteOffset": 85032,
            "byteStride": 12,
            "componentType": 5126,
            "count": 7086,
            "max": [
                1,
                1,
                1
            ],
            "min": [
                -1,
                -1,
                -1
            ],
            "type": "VEC3"
        },
        "accessor_247": {
            "bufferView": "bufferView_254",
            "byteOffset": 170064,
            "byteStride": 8,
            "componentType": 5126,
            "count": 7086,
            "max": [
                360,
                1
            ],
            "min": [
                -5.17624e-005,
                -33
            ],
            "type": "VEC2"
        },
        "accessor_249": {
            "bufferView": "bufferView_254",
            "byteOffset": 226752,
            "byteStride": 12,
            "componentType": 5126,
            "count": 7086,
            "max": [
                1,
                1,
                1.69716e-012
            ],
            "min": [
                -1,
                -1,
                -1.19197e-013
            ],
            "type": "VEC3"
        },
        "accessor_251": {
            "bufferView": "bufferView_254",
            "byteOffset": 311784,
            "byteStride": 12,
            "componentType": 5126,
            "count": 7086,
            "max": [
                1,
                1,
                1
            ],
            "min": [
                -1,
                -1,
                -1
            ],
            "type": "VEC3"
        }
    },
    "animations": {},
    "asset": {
        "generator": "collada2gltf@cf6371beb0bdc18ba603378d5e40c966da53d385",
        "premultipliedAlpha": true,
        "profile": {
            "api": "WebGL",
            "version": "1.0.2"
        },
        "version": "1.0"
    },
    "bufferViews": {
        "bufferView_253": {
            "buffer": "\\Users\\lenovo\\Documents\\3dsMax\\export\\C11",
            "byteLength": 21024,
            "byteOffset": 0,
            "target": 34963
        },
        "bufferView_254": {
            "buffer": "\\Users\\lenovo\\Documents\\3dsMax\\export\\C11",
            "byteLength": 396816,
            "byteOffset": 21024,
            "target": 34962
        }
    },
    "buffers": {
        "\\Users\\lenovo\\Documents\\3dsMax\\export\\C11": {
            "byteLength": 417840,
            "type": "arraybuffer",
            "uri": "data:application/octet-stream;base64,"
        }
    },
    "images": {
        "C1102_jpg": {
            "name": "C1102_jpg",
            "uri": "data:image/jpeg;base64,"
        },
        "C1103_jpg": {
            "name": "C1103_jpg",
            "uri": "data:image/jpeg;base64,"
        },
        "C1104_jpg": {
            "name": "C1104_jpg",
            "uri": "data:image/jpeg;base64,"
        },
        "C1106_jpg": {
            "name": "C1106_jpg",
            "uri": "data:image/jpeg;base64,"
        },
        "C1107_jpg": {
            "name": "C1107_jpg",
            "uri": "data:image/jpeg;base64,"
        },
        "C1108_jpg": {
            "name": "C1108_jpg",
            "uri": "data:image/jpeg;base64,"
        },
        "C1109_jpg": {
            "name": "C1109_jpg",
            "uri": "data:image/jpeg;base64,"
        }
    },
    "materials": {
        "Material__105": {
            "name": "Material__105",
            "technique": "technique0",
            "values": {
                "ambient": "texture_C1104_jpg",
                "diffuse": "texture_C1104_jpg",
                "emission": [
                    0,
                    0,
                    0,
                    1
                ],
                "shininess": 10,
                "specular": [
                    0,
                    0,
                    0,
                    1
                ]
            }
        },
        "Material__117": {
            "name": "Material__117",
            "technique": "technique0",
            "values": {
                "ambient": "texture_C1106_jpg",
                "diffuse": "texture_C1106_jpg",
                "emission": [
                    0,
                    0,
                    0,
                    1
                ],
                "shininess": 10,
                "specular": [
                    0,
                    0,
                    0,
                    1
                ]
            }
        },
        "Material__140": {
            "name": "Material__140",
            "technique": "technique0",
            "values": {
                "ambient": "texture_C1107_jpg",
                "diffuse": "texture_C1107_jpg",
                "emission": [
                    0,
                    0,
                    0,
                    1
                ],
                "shininess": 10,
                "specular": [
                    0,
                    0,
                    0,
                    1
                ]
            }
        },
        "Material__163": {
            "name": "Material__163",
            "technique": "technique0",
            "values": {
                "ambient": "texture_C1108_jpg",
                "diffuse": "texture_C1108_jpg",
                "emission": [
                    0,
                    0,
                    0,
                    1
                ],
                "shininess": 10,
                "specular": [
                    0,
                    0,
                    0,
                    1
                ]
            }
        },
        "Material__210": {
            "name": "Material__210",
            "technique": "technique0",
            "values": {
                "ambient": "texture_C1109_jpg",
                "diffuse": "texture_C1109_jpg",
                "emission": [
                    0,
                    0,
                    0,
                    1
                ],
                "shininess": 10,
                "specular": [
                    0,
                    0,
                    0,
                    1
                ]
            }
        },
        "Material__25": {
            "name": "Material__25",
            "technique": "technique0",
            "values": {
                "ambient": "texture_C1103_jpg",
                "diffuse": "texture_C1103_jpg",
                "emission": [
                    0,
                    0,
                    0,
                    1
                ],
                "shininess": 10,
                "specular": [
                    0,
                    0,
                    0,
                    1
                ]
            }
        },
        "Material__48": {
            "name": "Material__48",
            "technique": "technique0",
            "values": {
                "ambient": "texture_C1104_jpg",
                "diffuse": "texture_C1104_jpg",
                "emission": [
                    0,
                    0,
                    0,
                    1
                ],
                "shininess": 10,
                "specular": [
                    0,
                    0,
                    0,
                    1
                ]
            }
        },
        "Material__60": {
            "name": "Material__60",
            "technique": "technique0",
            "values": {
                "ambient": "texture_C1102_jpg",
                "diffuse": "texture_C1102_jpg",
                "emission": [
                    0,
                    0,
                    0,
                    1
                ],
                "shininess": 10,
                "specular": [
                    0,
                    0,
                    0,
                    1
                ]
            }
        }
    },
    "meshes": {
        "geom-Line001": {
            "name": "Line001",
            "primitives": [
                {
                    "attributes": {
                        "NORMAL": "accessor_245",
                        "POSITION": "accessor_243",
                        "TEXBINORMAL": "accessor_251",
                        "TEXCOORD_0": "accessor_247",
                        "TEXTANGENT": "accessor_249"
                    },
                    "indices": "accessor_220",
                    "material": "Material__140",
                    "mode": 4
                },
                {
                    "attributes": {
                        "NORMAL": "accessor_245",
                        "POSITION": "accessor_243",
                        "TEXBINORMAL": "accessor_251",
                        "TEXCOORD_0": "accessor_247",
                        "TEXTANGENT": "accessor_249"
                    },
                    "indices": "accessor_223",
                    "material": "Material__60",
                    "mode": 4
                },
                {
                    "attributes": {
                        "NORMAL": "accessor_245",
                        "POSITION": "accessor_243",
                        "TEXBINORMAL": "accessor_251",
                        "TEXCOORD_0": "accessor_247",
                        "TEXTANGENT": "accessor_249"
                    },
                    "indices": "accessor_226",
                    "material": "Material__25",
                    "mode": 4
                },
                {
                    "attributes": {
                        "NORMAL": "accessor_245",
                        "POSITION": "accessor_243",
                        "TEXBINORMAL": "accessor_251",
                        "TEXCOORD_0": "accessor_247",
                        "TEXTANGENT": "accessor_249"
                    },
                    "indices": "accessor_229",
                    "material": "Material__105",
                    "mode": 4
                },
                {
                    "attributes": {
                        "NORMAL": "accessor_245",
                        "POSITION": "accessor_243",
                        "TEXBINORMAL": "accessor_251",
                        "TEXCOORD_0": "accessor_247",
                        "TEXTANGENT": "accessor_249"
                    },
                    "indices": "accessor_232",
                    "material": "Material__48",
                    "mode": 4
                },
                {
                    "attributes": {
                        "NORMAL": "accessor_245",
                        "POSITION": "accessor_243",
                        "TEXBINORMAL": "accessor_251",
                        "TEXCOORD_0": "accessor_247",
                        "TEXTANGENT": "accessor_249"
                    },
                    "indices": "accessor_235",
                    "material": "Material__117",
                    "mode": 4
                },
                {
                    "attributes": {
                        "NORMAL": "accessor_245",
                        "POSITION": "accessor_243",
                        "TEXBINORMAL": "accessor_251",
                        "TEXCOORD_0": "accessor_247",
                        "TEXTANGENT": "accessor_249"
                    },
                    "indices": "accessor_238",
                    "material": "Material__163",
                    "mode": 4
                },
                {
                    "attributes": {
                        "NORMAL": "accessor_245",
                        "POSITION": "accessor_243",
                        "TEXBINORMAL": "accessor_251",
                        "TEXCOORD_0": "accessor_247",
                        "TEXTANGENT": "accessor_249"
                    },
                    "indices": "accessor_241",
                    "material": "Material__210",
                    "mode": 4
                }
            ]
        }
    },
    "nodes": {
        "node-Line001": {
            "children": [
                "node_2"
            ],
            "matrix": [
                1,
                0,
                0,
                0,
                0,
                1,
                0,
                0,
                0,
                0,
                1,
                0,
                0,
                0,
                5.05,
                1
            ],
            "name": "Line001"
        },
        "node_0": {
            "children": [],
            "matrix": [
                1,
                0,
                0,
                0,
                0,
                1,
                0,
                0,
                0,
                0,
                1,
                0,
                0,
                0,
                0,
                1
            ],
            "name": "EnvironmentAmbientLight"
        },
        "node_2": {
            "children": [],
            "matrix": [
                1,
                0,
                0,
                0,
                0,
                1,
                0,
                0,
                0,
                0,
                1,
                0,
                -0.333336,
                1,
                -4.95,
                1
            ],
            "meshes": [
                "geom-Line001"
            ],
            "name": ""
        },
        "node_3": {
            "children": [
                "node_0",
                "node-Line001"
            ],
            "matrix": [
                1,
                0,
                0,
                0,
                0,
                0,
                -1,
                0,
                0,
                1,
                0,
                0,
                0,
                0,
                0,
                1
            ],
            "name": "Y_UP_Transform"
        }
    },
    "programs": {
        "program_0": {
            "attributes": [
                "a_normal",
                "a_position",
                "a_texcoord0"
            ],
            "fragmentShader": "\\Users\\lenovo\\Documents\\3dsMax\\export\\C110FS",
            "vertexShader": "\\Users\\lenovo\\Documents\\3dsMax\\export\\C110VS"
        }
    },
    "samplers": {
        "sampler_0": {
            "magFilter": 9729,
            "minFilter": 9729,
            "wrapS": 10497,
            "wrapT": 10497
        }
    },
    "scene": "defaultScene",
    "scenes": {
        "defaultScene": {
            "nodes": [
                "node_3"
            ]
        }
    },
    "shaders": {
        "\\Users\\lenovo\\Documents\\3dsMax\\export\\C110FS": {
            "type": 35632,
            "uri": "data:text/plain;base64,"
        },
        "\\Users\\lenovo\\Documents\\3dsMax\\export\\C110VS": {
            "type": 35633,
            "uri": "data:text/plain;base64,"
        }
    },
    "skins": {},
    "techniques": {
        "technique0": {
            "attributes": {
                "a_normal": "normal",
                "a_position": "position",
                "a_texcoord0": "texcoord0"
            },
            "parameters": {
                "ambient": {
                    "type": 35678
                },
                "diffuse": {
                    "type": 35678
                },
                "emission": {
                    "type": 35666
                },
                "modelViewMatrix": {
                    "semantic": "MODELVIEW",
                    "type": 35676
                },
                "normal": {
                    "semantic": "NORMAL",
                    "type": 35665
                },
                "normalMatrix": {
                    "semantic": "MODELVIEWINVERSETRANSPOSE",
                    "type": 35675
                },
                "position": {
                    "semantic": "POSITION",
                    "type": 35665
                },
                "projectionMatrix": {
                    "semantic": "PROJECTION",
                    "type": 35676
                },
                "shininess": {
                    "type": 5126
                },
                "specular": {
                    "type": 35666
                },
                "texcoord0": {
                    "semantic": "TEXCOORD_0",
                    "type": 35664
                }
            },
            "program": "program_0",
            "states": {
                "enable": [
                    2929,
                    2884
                ]
            },
            "uniforms": {
                "u_ambient": "ambient",
                "u_diffuse": "diffuse",
                "u_emission": "emission",
                "u_modelViewMatrix": "modelViewMatrix",
                "u_normalMatrix": "normalMatrix",
                "u_projectionMatrix": "projectionMatrix",
                "u_shininess": "shininess",
                "u_specular": "specular"
            }
        }
    },
    "textures": {
        "texture_C1102_jpg": {
            "format": 6408,
            "internalFormat": 6408,
            "sampler": "sampler_0",
            "source": "C1102_jpg",
            "target": 3553,
            "type": 5121
        },
        "texture_C1103_jpg": {
            "format": 6408,
            "internalFormat": 6408,
            "sampler": "sampler_0",
            "source": "C1103_jpg",
            "target": 3553,
            "type": 5121
        },
        "texture_C1104_jpg": {
            "format": 6408,
            "internalFormat": 6408,
            "sampler": "sampler_0",
            "source": "C1104_jpg",
            "target": 3553,
            "type": 5121
        },
        "texture_C1106_jpg": {
            "format": 6408,
            "internalFormat": 6408,
            "sampler": "sampler_0",
            "source": "C1106_jpg",
            "target": 3553,
            "type": 5121
        },
        "texture_C1107_jpg": {
            "format": 6408,
            "internalFormat": 6408,
            "sampler": "sampler_0",
            "source": "C1107_jpg",
            "target": 3553,
            "type": 5121
        },
        "texture_C1108_jpg": {
            "format": 6408,
            "internalFormat": 6408,
            "sampler": "sampler_0",
            "source": "C1108_jpg",
            "target": 3553,
            "type": 5121
        },
        "texture_C1109_jpg": {
            "format": 6408,
            "internalFormat": 6408,
            "sampler": "sampler_0",
            "source": "C1109_jpg",
            "target": 3553,
            "type": 5121
        }
    }
}