{
    "accessors": {
        "accessor_247": {
            "bufferView": "bufferView_283",
            "byteOffset": 0,
            "byteStride": 0,
            "componentType": 5123,
            "count": 576,
            "type": "SCALAR"
        },
        "accessor_250": {
            "bufferView": "bufferView_283",
            "byteOffset": 1152,
            "byteStride": 0,
            "componentType": 5123,
            "count": 144,
            "type": "SCALAR"
        },
        "accessor_253": {
            "bufferView": "bufferView_283",
            "byteOffset": 1440,
            "byteStride": 0,
            "componentType": 5123,
            "count": 66,
            "type": "SCALAR"
        },
        "accessor_256": {
            "bufferView": "bufferView_283",
            "byteOffset": 1572,
            "byteStride": 0,
            "componentType": 5123,
            "count": 984,
            "type": "SCALAR"
        },
        "accessor_259": {
            "bufferView": "bufferView_283",
            "byteOffset": 3540,
            "byteStride": 0,
            "componentType": 5123,
            "count": 108,
            "type": "SCALAR"
        },
        "accessor_262": {
            "bufferView": "bufferView_283",
            "byteOffset": 3756,
            "byteStride": 0,
            "componentType": 5123,
            "count": 288,
            "type": "SCALAR"
        },
        "accessor_265": {
            "bufferView": "bufferView_283",
            "byteOffset": 4332,
            "byteStride": 0,
            "componentType": 5123,
            "count": 30,
            "type": "SCALAR"
        },
        "accessor_268": {
            "bufferView": "bufferView_283",
            "byteOffset": 4392,
            "byteStride": 0,
            "componentType": 5123,
            "count": 48,
            "type": "SCALAR"
        },
        "accessor_271": {
            "bufferView": "bufferView_283",
            "byteOffset": 4488,
            "byteStride": 0,
            "componentType": 5123,
            "count": 48,
            "type": "SCALAR"
        },
        "accessor_273": {
            "bufferView": "bufferView_284",
            "byteOffset": 0,
            "byteStride": 12,
            "componentType": 5126,
            "count": 1570,
            "max": [
                9.71271,
                8.5,
                80.5
            ],
            "min": [
                -9.71271,
                -8.5,
                0
            ],
            "type": "VEC3"
        },
        "accessor_275": {
            "bufferView": "bufferView_284",
            "byteOffset": 18840,
            "byteStride": 12,
            "componentType": 5126,
            "count": 1570,
            "max": [
                1,
                1,
                1
            ],
            "min": [
                -1,
                -1,
                -1
            ],
            "type": "VEC3"
        },
        "accessor_277": {
            "bufferView": "bufferView_284",
            "byteOffset": 37680,
            "byteStride": 8,
            "componentType": 5126,
            "count": 1570,
            "max": [
                7.2912,
                7.31436
            ],
            "min": [
                -7.2912,
                -5.31436
            ],
            "type": "VEC2"
        },
        "accessor_279": {
            "bufferView": "bufferView_284",
            "byteOffset": 50240,
            "byteStride": 12,
            "componentType": 5126,
            "count": 1570,
            "max": [
                1,
                1,
                0.986779
            ],
            "min": [
                -1,
                -1,
                -8.17253e-006
            ],
            "type": "VEC3"
        },
        "accessor_281": {
            "bufferView": "bufferView_284",
            "byteOffset": 69080,
            "byteStride": 12,
            "componentType": 5126,
            "count": 1570,
            "max": [
                1,
                1,
                1
            ],
            "min": [
                -1,
                -1,
                -1
            ],
            "type": "VEC3"
        }
    },
    "animations": {},
    "asset": {
        "generator": "collada2gltf@cf6371beb0bdc18ba603378d5e40c966da53d385",
        "premultipliedAlpha": true,
        "profile": {
            "api": "WebGL",
            "version": "1.0.2"
        },
        "version": "1.0"
    },
    "bufferViews": {
        "bufferView_283": {
            "buffer": "\\Users\\lenovo\\Documents\\3dsMax\\export\\CT1",
            "byteLength": 4584,
            "byteOffset": 0,
            "target": 34963
        },
        "bufferView_284": {
            "buffer": "\\Users\\lenovo\\Documents\\3dsMax\\export\\CT1",
            "byteLength": 87920,
            "byteOffset": 4584,
            "target": 34962
        }
    },
    "buffers": {
        "\\Users\\lenovo\\Documents\\3dsMax\\export\\CT1": {
            "byteLength": 92504,
            "type": "arraybuffer",
            "uri": "data:application/octet-stream;base64,"
        }
    },
    "images": {
        "CT101_JPG": {
            "name": "CT101_JPG",
            "uri": "data:image/jpeg;base64,"
        },
        "CT102_JPG": {
            "name": "CT102_JPG",
            "uri": "data:image/jpeg;base64,"
        },
        "CT104_JPG": {
            "name": "CT104_JPG",
            "uri": "data:image/jpeg;base64,"
        },
        "CT105_JPG": {
            "name": "CT105_JPG",
            "uri": "data:image/jpeg;base64,"
        },
        "CT106_JPG": {
            "name": "CT106_JPG",
            "uri": "data:image/jpeg;base64,"
        }
    },
    "materials": {
        "Material__2": {
            "name": "Material__2",
            "technique": "technique0",
            "values": {
                "ambient": "texture_CT101_JPG",
                "diffuse": "texture_CT101_JPG",
                "emission": [
                    0,
                    0,
                    0,
                    1
                ],
                "shininess": 10,
                "specular": [
                    0,
                    0,
                    0,
                    1
                ]
            }
        },
        "Material__25": {
            "name": "Material__25",
            "technique": "technique0",
            "values": {
                "ambient": "texture_CT102_JPG",
                "diffuse": "texture_CT102_JPG",
                "emission": [
                    0,
                    0,
                    0,
                    1
                ],
                "shininess": 10,
                "specular": [
                    0,
                    0,
                    0,
                    1
                ]
            }
        },
        "Material__27": {
            "name": "Material__27",
            "technique": "technique0",
            "values": {
                "ambient": "texture_CT104_JPG",
                "diffuse": "texture_CT104_JPG",
                "emission": [
                    0,
                    0,
                    0,
                    1
                ],
                "shininess": 10,
                "specular": [
                    0,
                    0,
                    0,
                    1
                ]
            }
        },
        "Material__421": {
            "name": "Material__421",
            "technique": "technique1",
            "values": {
                "ambient": [
                    0.588,
                    0.588,
                    0.588,
                    1
                ],
                "diffuse": [
                    0.588,
                    0.588,
                    0.588,
                    1
                ],
                "emission": [
                    0,
                    0,
                    0,
                    1
                ],
                "shininess": 10,
                "specular": [
                    0,
                    0,
                    0,
                    1
                ]
            }
        },
        "Material__628": {
            "name": "Material__628",
            "technique": "technique0",
            "values": {
                "ambient": "texture_CT105_JPG",
                "diffuse": "texture_CT105_JPG",
                "emission": [
                    0,
                    0,
                    0,
                    1
                ],
                "shininess": 10,
                "specular": [
                    0,
                    0,
                    0,
                    1
                ]
            }
        },
        "Material__630": {
            "name": "Material__630",
            "technique": "technique1",
            "values": {
                "ambient": [
                    0.588,
                    0.588,
                    0.588,
                    1
                ],
                "diffuse": [
                    0.588,
                    0.588,
                    0.588,
                    1
                ],
                "emission": [
                    0,
                    0,
                    0,
                    1
                ],
                "shininess": 10,
                "specular": [
                    0,
                    0,
                    0,
                    1
                ]
            }
        },
        "Material__651": {
            "name": "Material__651",
            "technique": "technique0",
            "values": {
                "ambient": "texture_CT106_JPG",
                "diffuse": "texture_CT106_JPG",
                "emission": [
                    0,
                    0,
                    0,
                    1
                ],
                "shininess": 10,
                "specular": [
                    0,
                    0,
                    0,
                    1
                ]
            }
        },
        "Material__652": {
            "name": "Material__652",
            "technique": "technique1",
            "values": {
                "ambient": [
                    0.588,
                    0.588,
                    0.588,
                    1
                ],
                "diffuse": [
                    0.588,
                    0.588,
                    0.588,
                    1
                ],
                "emission": [
                    0,
                    0,
                    0,
                    1
                ],
                "shininess": 10,
                "specular": [
                    0,
                    0,
                    0,
                    1
                ]
            }
        },
        "Material__653": {
            "name": "Material__653",
            "technique": "technique1",
            "values": {
                "ambient": [
                    0.588,
                    0.588,
                    0.588,
                    1
                ],
                "diffuse": [
                    0.588,
                    0.588,
                    0.588,
                    1
                ],
                "emission": [
                    0,
                    0,
                    0,
                    1
                ],
                "shininess": 10,
                "specular": [
                    0,
                    0,
                    0,
                    1
                ]
            }
        }
    },
    "meshes": {
        "geom-Cylinder001": {
            "name": "Cylinder001",
            "primitives": [
                {
                    "attributes": {
                        "NORMAL": "accessor_275",
                        "POSITION": "accessor_273",
                        "TEXBINORMAL": "accessor_281",
                        "TEXCOORD_0": "accessor_277",
                        "TEXTANGENT": "accessor_279"
                    },
                    "indices": "accessor_247",
                    "material": "Material__27",
                    "mode": 4
                },
                {
                    "attributes": {
                        "NORMAL": "accessor_275",
                        "POSITION": "accessor_273",
                        "TEXBINORMAL": "accessor_281",
                        "TEXCOORD_0": "accessor_277",
                        "TEXTANGENT": "accessor_279"
                    },
                    "indices": "accessor_250",
                    "material": "Material__628",
                    "mode": 4
                },
                {
                    "attributes": {
                        "NORMAL": "accessor_275",
                        "POSITION": "accessor_273",
                        "TEXBINORMAL": "accessor_281",
                        "TEXCOORD_0": "accessor_277",
                        "TEXTANGENT": "accessor_279"
                    },
                    "indices": "accessor_253",
                    "material": "Material__630",
                    "mode": 4
                },
                {
                    "attributes": {
                        "NORMAL": "accessor_275",
                        "POSITION": "accessor_273",
                        "TEXBINORMAL": "accessor_281",
                        "TEXCOORD_0": "accessor_277",
                        "TEXTANGENT": "accessor_279"
                    },
                    "indices": "accessor_256",
                    "material": "Material__25",
                    "mode": 4
                },
                {
                    "attributes": {
                        "NORMAL": "accessor_275",
                        "POSITION": "accessor_273",
                        "TEXBINORMAL": "accessor_281",
                        "TEXCOORD_0": "accessor_277",
                        "TEXTANGENT": "accessor_279"
                    },
                    "indices": "accessor_259",
                    "material": "Material__651",
                    "mode": 4
                },
                {
                    "attributes": {
                        "NORMAL": "accessor_275",
                        "POSITION": "accessor_273",
                        "TEXBINORMAL": "accessor_281",
                        "TEXCOORD_0": "accessor_277",
                        "TEXTANGENT": "accessor_279"
                    },
                    "indices": "accessor_262",
                    "material": "Material__2",
                    "mode": 4
                },
                {
                    "attributes": {
                        "NORMAL": "accessor_275",
                        "POSITION": "accessor_273",
                        "TEXBINORMAL": "accessor_281",
                        "TEXCOORD_0": "accessor_277",
                        "TEXTANGENT": "accessor_279"
                    },
                    "indices": "accessor_265",
                    "material": "Material__421",
                    "mode": 4
                },
                {
                    "attributes": {
                        "NORMAL": "accessor_275",
                        "POSITION": "accessor_273",
                        "TEXBINORMAL": "accessor_281",
                        "TEXCOORD_0": "accessor_277",
                        "TEXTANGENT": "accessor_279"
                    },
                    "indices": "accessor_268",
                    "material": "Material__653",
                    "mode": 4
                },
                {
                    "attributes": {
                        "NORMAL": "accessor_275",
                        "POSITION": "accessor_273",
                        "TEXBINORMAL": "accessor_281",
                        "TEXCOORD_0": "accessor_277",
                        "TEXTANGENT": "accessor_279"
                    },
                    "indices": "accessor_271",
                    "material": "Material__652",
                    "mode": 4
                }
            ]
        }
    },
    "nodes": {
        "node-Cylinder001": {
            "children": [],
            "matrix": [
                1,
                0,
                0,
                0,
                0,
                1,
                0,
                0,
                0,
                0,
                1,
                0,
                0,
                0,
                0,
                1
            ],
            "meshes": [
                "geom-Cylinder001"
            ],
            "name": "Cylinder001"
        },
        "node_0": {
            "children": [],
            "matrix": [
                1,
                0,
                0,
                0,
                0,
                1,
                0,
                0,
                0,
                0,
                1,
                0,
                0,
                0,
                0,
                1
            ],
            "name": "EnvironmentAmbientLight"
        },
        "node_2": {
            "children": [
                "node_0",
                "node-Cylinder001"
            ],
            "matrix": [
                1,
                0,
                0,
                0,
                0,
                0,
                -1,
                0,
                0,
                1,
                0,
                0,
                0,
                0,
                0,
                1
            ],
            "name": "Y_UP_Transform"
        }
    },
    "programs": {
        "program_0": {
            "attributes": [
                "a_normal",
                "a_position",
                "a_texcoord0"
            ],
            "fragmentShader": "\\Users\\lenovo\\Documents\\3dsMax\\export\\CT10FS",
            "vertexShader": "\\Users\\lenovo\\Documents\\3dsMax\\export\\CT10VS"
        },
        "program_1": {
            "attributes": [
                "a_normal",
                "a_position"
            ],
            "fragmentShader": "\\Users\\lenovo\\Documents\\3dsMax\\export\\CT11FS",
            "vertexShader": "\\Users\\lenovo\\Documents\\3dsMax\\export\\CT11VS"
        }
    },
    "samplers": {
        "sampler_0": {
            "magFilter": 9729,
            "minFilter": 9729,
            "wrapS": 10497,
            "wrapT": 10497
        }
    },
    "scene": "defaultScene",
    "scenes": {
        "defaultScene": {
            "nodes": [
                "node_2"
            ]
        }
    },
    "shaders": {
        "\\Users\\lenovo\\Documents\\3dsMax\\export\\CT10FS": {
            "type": 35632,
            "uri": "data:text/plain;base64,"
        },
        "\\Users\\lenovo\\Documents\\3dsMax\\export\\CT10VS": {
            "type": 35633,
            "uri": "data:text/plain;base64,"
        },
        "\\Users\\lenovo\\Documents\\3dsMax\\export\\CT11FS": {
            "type": 35632,
            "uri": "data:text/plain;base64,"
        },
        "\\Users\\lenovo\\Documents\\3dsMax\\export\\CT11VS": {
            "type": 35633,
            "uri": "data:text/plain;base64,"
        }
    },
    "skins": {},
    "techniques": {
        "technique0": {
            "attributes": {
                "a_normal": "normal",
                "a_position": "position",
                "a_texcoord0": "texcoord0"
            },
            "parameters": {
                "ambient": {
                    "type": 35678
                },
                "diffuse": {
                    "type": 35678
                },
                "emission": {
                    "type": 35666
                },
                "modelViewMatrix": {
                    "semantic": "MODELVIEW",
                    "type": 35676
                },
                "normal": {
                    "semantic": "NORMAL",
                    "type": 35665
                },
                "normalMatrix": {
                    "semantic": "MODELVIEWINVERSETRANSPOSE",
                    "type": 35675
                },
                "position": {
                    "semantic": "POSITION",
                    "type": 35665
                },
                "projectionMatrix": {
                    "semantic": "PROJECTION",
                    "type": 35676
                },
                "shininess": {
                    "type": 5126
                },
                "specular": {
                    "type": 35666
                },
                "texcoord0": {
                    "semantic": "TEXCOORD_0",
                    "type": 35664
                }
            },
            "program": "program_0",
            "states": {
                "enable": [
                    2929,
                    2884
                ]
            },
            "uniforms": {
                "u_ambient": "ambient",
                "u_diffuse": "diffuse",
                "u_emission": "emission",
                "u_modelViewMatrix": "modelViewMatrix",
                "u_normalMatrix": "normalMatrix",
                "u_projectionMatrix": "projectionMatrix",
                "u_shininess": "shininess",
                "u_specular": "specular"
            }
        },
        "technique1": {
            "attributes": {
                "a_normal": "normal",
                "a_position": "position"
            },
            "parameters": {
                "ambient": {
                    "type": 35666
                },
                "diffuse": {
                    "type": 35666
                },
                "emission": {
                    "type": 35666
                },
                "modelViewMatrix": {
                    "semantic": "MODELVIEW",
                    "type": 35676
                },
                "normal": {
                    "semantic": "NORMAL",
                    "type": 35665
                },
                "normalMatrix": {
                    "semantic": "MODELVIEWINVERSETRANSPOSE",
                    "type": 35675
                },
                "position": {
                    "semantic": "POSITION",
                    "type": 35665
                },
                "projectionMatrix": {
                    "semantic": "PROJECTION",
                    "type": 35676
                },
                "shininess": {
                    "type": 5126
                },
                "specular": {
                    "type": 35666
                }
            },
            "program": "program_1",
            "states": {
                "enable": [
                    2929,
                    2884
                ]
            },
            "uniforms": {
                "u_ambient": "ambient",
                "u_diffuse": "diffuse",
                "u_emission": "emission",
                "u_modelViewMatrix": "modelViewMatrix",
                "u_normalMatrix": "normalMatrix",
                "u_projectionMatrix": "projectionMatrix",
                "u_shininess": "shininess",
                "u_specular": "specular"
            }
        }
    },
    "textures": {
        "texture_CT101_JPG": {
            "format": 6408,
            "internalFormat": 6408,
            "sampler": "sampler_0",
            "source": "CT101_JPG",
            "target": 3553,
            "type": 5121
        },
        "texture_CT102_JPG": {
            "format": 6408,
            "internalFormat": 6408,
            "sampler": "sampler_0",
            "source": "CT102_JPG",
            "target": 3553,
            "type": 5121
        },
        "texture_CT104_JPG": {
            "format": 6408,
            "internalFormat": 6408,
            "sampler": "sampler_0",
            "source": "CT104_JPG",
            "target": 3553,
            "type": 5121
        },
        "texture_CT105_JPG": {
            "format": 6408,
            "internalFormat": 6408,
            "sampler": "sampler_0",
            "source": "CT105_JPG",
            "target": 3553,
            "type": 5121
        },
        "texture_CT106_JPG": {
            "format": 6408,
            "internalFormat": 6408,
            "sampler": "sampler_0",
            "source": "CT106_JPG",
            "target": 3553,
            "type": 5121
        }
    }
}